<svg width="36.092" height="36.092" xmlns="http://www.w3.org/2000/svg">

 <g>
  <title>background</title>
  <rect fill="none" id="canvas_background" height="402" width="582" y="-1" x="-1"/>
 </g>
 <g>
  <title>Layer 1</title>
  <g id="svg_1">
   <path fill="#87b6e5" id="svg_2" d="m36.043,13.909c-0.123,-0.377 -0.456,-0.646 -0.852,-0.688l-11.549,-1.171l-4.682,-10.619c-0.159,-0.363 -0.518,-0.596 -0.914,-0.596s-0.755,0.234 -0.915,0.597l-4.683,10.62l-11.548,1.17c-0.395,0.04 -0.728,0.309 -0.851,0.688c-0.122,0.377 -0.011,0.791 0.285,1.055l8.651,7.734l-2.453,11.345c-0.084,0.387 0.07,0.789 0.391,1.021c0.321,0.231 0.747,0.254 1.091,0.055l10.031,-5.838l10.029,5.838c0.156,0.092 0.33,0.137 0.505,0.137c0.207,0 0.411,-0.064 0.588,-0.191c0.319,-0.231 0.474,-0.633 0.39,-1.021l-2.453,-11.345l8.651,-7.735c0.299,-0.267 0.41,-0.679 0.288,-1.056zm-10.704,7.685c-0.271,0.24 -0.39,0.604 -0.312,0.957l2.099,9.699l-8.574,-4.99c-0.001,0 -0.002,0 -0.003,-0.002l0,-21.811l3.503,7.943c0.146,0.33 0.456,0.555 0.813,0.592l9.869,1.001l-7.395,6.611z"/>
  </g>
  <g id="svg_3"/>
  <g id="svg_4"/>
  <g id="svg_5"/>
  <g id="svg_6"/>
  <g id="svg_7"/>
  <g id="svg_8"/>
  <g id="svg_9"/>
  <g id="svg_10"/>
  <g id="svg_11"/>
  <g id="svg_12"/>
  <g id="svg_13"/>
  <g id="svg_14"/>
  <g id="svg_15"/>
  <g id="svg_16"/>
  <g id="svg_17"/>
 </g>
</svg>